<svg width="64" height="64" viewBox="0 0 64 64" fill="none" xmlns="http://www.w3.org/2000/svg">
<path d="M31.992 62.3996C48.7814 62.3996 62.392 48.7891 62.392 31.9996C62.392 15.2102 48.7814 1.59961 31.992 1.59961C15.2025 1.59961 1.59198 15.2102 1.59198 31.9996C1.59198 48.7891 15.2025 62.3996 31.992 62.3996Z" fill="#E4F2FF"/>
<path d="M31.9904 61.6004C15.6688 61.6004 2.39038 48.322 2.39038 32.0004C2.39038 15.6788 15.6688 2.40039 31.9904 2.40039C41.9136 2.40039 51.0592 7.30919 56.5808 15.5668L53.1056 19.01C48.6016 11.6996 40.6064 7.20039 31.9904 7.20039C18.3152 7.20039 7.19038 18.3252 7.19038 32.0004C7.19038 45.6756 18.3152 56.8004 31.9904 56.8004C45.6656 56.8004 56.7904 45.6756 56.7904 32.0004C56.7904 29.146 56.2896 26.3204 55.3008 23.5924L58.992 19.9348C60.7168 23.7684 61.5904 27.8228 61.5904 32.0004C61.5904 48.322 48.312 61.6004 31.9904 61.6004Z" fill="#96CBFF"/>
<path d="M31.992 3.19961C41.4272 3.19961 50.1376 7.76121 55.544 15.4668L53.2448 17.7452C48.512 10.6988 40.5472 6.39961 31.992 6.39961C17.8768 6.39961 6.39198 17.8844 6.39198 31.9996C6.39198 46.1148 17.8768 57.5996 31.992 57.5996C46.1072 57.5996 57.592 46.1148 57.592 31.9996C57.592 29.222 57.1328 26.47 56.2256 23.8028L58.72 21.3308C60.096 24.7436 60.792 28.3228 60.792 31.9996C60.792 47.8796 47.872 60.7996 31.992 60.7996C16.112 60.7996 3.19198 47.8796 3.19198 31.9996C3.19198 16.1196 16.1104 3.19961 31.992 3.19961ZM31.992 1.59961C15.2032 1.59961 1.59198 15.2108 1.59198 31.9996C1.59198 48.7884 15.2032 62.3996 31.992 62.3996C48.7808 62.3996 62.392 48.7884 62.392 31.9996C62.392 27.1708 61.2368 22.6236 59.2336 18.5692L54.3728 23.3868C55.4032 26.0636 55.992 28.9596 55.992 31.9996C55.992 45.254 45.2464 55.9996 31.992 55.9996C18.7376 55.9996 7.99198 45.254 7.99198 31.9996C7.99198 18.7452 18.7376 7.99961 31.992 7.99961C40.9968 7.99961 48.8336 12.966 52.9392 20.302L57.6096 15.6748C52.208 7.22041 42.7664 1.59961 31.992 1.59961Z" fill="#3A63CC"/>
<path d="M20.6064 28.5252L24 25.1316L31.9968 33.1284L57.7344 7.66602L61.128 11.0612L32.0032 39.9236L20.6064 28.5252Z" fill="#4087F3"/>
<path d="M57.7312 8.79311L59.9936 11.0555L32.0048 38.7931L21.7376 28.5243L24 26.2619L30.8688 33.1307L31.9936 34.2555L33.1248 33.1355L57.7312 8.79311ZM57.7376 6.53711L32 31.9995L24 23.9995L19.4752 28.5243L32 41.0507L62.2624 11.0619L57.7376 6.53711Z" fill="#2E4FA3"/>
</svg>
