<svg width="460" height="129" viewBox="0 0 460 129" fill="none" xmlns="http://www.w3.org/2000/svg">
<path d="M0 128.34H5.76802V122.572H0V128.34Z" fill="#7C89C4"/>
<path d="M7.20996 128.34H12.978V122.572H7.20996V128.34Z" fill="#7C89C4"/>
<path d="M0 121.129H5.76802V115.361H0V121.129Z" fill="#7C89C4"/>
<path d="M7.20996 121.129H12.978V115.361H7.20996V121.129Z" fill="#7C89C4"/>
<path d="M14.4202 113.92H20.1882V108.152H14.4202V113.92Z" fill="#7C89C4"/>
<path d="M21.6301 113.92H27.3982V108.152H21.6301V113.92Z" fill="#7C89C4"/>
<path d="M14.4202 106.709H20.1882V100.941H14.4202V106.709Z" fill="#7C89C4"/>
<path d="M21.6301 106.709H27.3982V100.941H21.6301V106.709Z" fill="#7C89C4"/>
<path d="M28.8401 113.92H34.6081V108.152H28.8401V113.92Z" fill="#7C89C4"/>
<path d="M36.05 113.92H41.8181V108.152H36.05V113.92Z" fill="#7C89C4"/>
<path d="M28.8401 106.709H34.6081V100.941H28.8401V106.709Z" fill="#7C89C4"/>
<path d="M36.05 106.709H41.8181V100.941H36.05V106.709Z" fill="#7C89C4"/>
<path d="M43.2603 113.92H49.0283V108.152H43.2603V113.92Z" fill="#038FC8"/>
<path d="M50.4702 113.92H56.2382V108.152H50.4702V113.92Z" fill="#038FC8"/>
<path d="M43.2603 106.709H49.0283V100.941H43.2603V106.709Z" fill="#038FC8"/>
<path d="M50.4702 106.709H56.2382V100.941H50.4702V106.709Z" fill="#038FC8"/>
<path d="M43.2603 99.498H49.0283V93.73H43.2603V99.498Z" fill="#0791BB"/>
<path d="M50.4702 99.498H56.2382V93.73H50.4702V99.498Z" fill="#0791BB"/>
<path d="M43.2603 92.2871H49.0283V86.5191H43.2603V92.2871Z" fill="#0791BB"/>
<path d="M50.4702 92.2871H56.2382V86.5191H50.4702V92.2871Z" fill="#0791BB"/>
<path d="M57.6802 113.92H63.4482V108.152H57.6802V113.92Z" fill="#038FC8"/>
<path d="M64.8901 113.92H70.6582V108.152H64.8901V113.92Z" fill="#038FC8"/>
<path d="M57.6802 106.709H63.4482V100.941H57.6802V106.709Z" fill="#038FC8"/>
<path d="M64.8901 106.709H70.6582V100.941H64.8901V106.709Z" fill="#038FC8"/>
<path d="M100.94 113.92H106.708V108.152H100.94V113.92Z" fill="#5363AD"/>
<path d="M108.15 113.92H113.918V108.152H108.15V113.92Z" fill="#5363AD"/>
<path d="M100.94 106.709H106.708V100.941H100.94V106.709Z" fill="#5363AD"/>
<path d="M108.15 106.709H113.918V100.941H108.15V106.709Z" fill="#5363AD"/>
<path d="M72.1003 99.498H77.8684V93.73H72.1003V99.498Z" fill="#0A7E9A"/>
<path d="M79.3103 99.498H85.0783V93.73H79.3103V99.498Z" fill="#0A7E9A"/>
<path d="M72.1003 92.2871H77.8684V86.5191H72.1003V92.2871Z" fill="#0A7E9A"/>
<path d="M79.3103 92.2871H85.0783V86.5191H79.3103V92.2871Z" fill="#0A7E9A"/>
<path d="M86.5203 99.498H92.2883V93.73H86.5203V99.498Z" fill="#0791BB"/>
<path d="M93.7302 99.498H99.4983V93.73H93.7302V99.498Z" fill="#0791BB"/>
<path d="M86.5203 92.2871H92.2883V86.5191H86.5203V92.2871Z" fill="#0791BB"/>
<path d="M93.7302 92.2871H99.4983V86.5191H93.7302V92.2871Z" fill="#0791BB"/>
<path d="M86.5203 113.92H92.2883V108.152H86.5203V113.92Z" fill="white"/>
<path d="M93.7302 113.92H99.4983V108.152H93.7302V113.92Z" fill="white"/>
<path d="M86.5203 106.709H92.2883V100.941H86.5203V106.709Z" fill="white"/>
<path d="M93.7302 106.709H99.4983V100.941H93.7302V106.709Z" fill="white"/>
<path d="M86.5203 128.34H92.2883V122.572H86.5203V128.34Z" fill="#038FC8"/>
<path d="M93.7302 128.34H99.4983V122.572H93.7302V128.34Z" fill="#038FC8"/>
<path d="M86.5203 121.129H92.2883V115.361H86.5203V121.129Z" fill="#038FC8"/>
<path d="M93.7302 121.129H99.4983V115.361H93.7302V121.129Z" fill="#038FC8"/>
<path d="M100.94 128.34H106.708V122.572H100.94V128.34Z" fill="#65B153"/>
<path d="M108.15 128.34H113.918V122.572H108.15V128.34Z" fill="#65B153"/>
<path d="M100.94 121.129H106.708V115.361H100.94V121.129Z" fill="#65B153"/>
<path d="M108.15 121.129H113.918V115.361H108.15V121.129Z" fill="#65B153"/>
<path d="M115.361 128.34H121.129V122.572H115.361V128.34Z" fill="#65B153"/>
<path d="M122.571 128.34H128.339V122.572H122.571V128.34Z" fill="#65B153"/>
<path d="M115.361 121.129H121.129V115.361H115.361V121.129Z" fill="#65B153"/>
<path d="M122.571 121.129H128.339V115.361H122.571V121.129Z" fill="#65B153"/>
<path d="M144.201 128.34H149.969V122.572H144.201V128.34Z" fill="#65B153"/>
<path d="M151.411 128.34H157.179V122.572H151.411V128.34Z" fill="#65B153"/>
<path d="M144.201 121.129H149.969V115.361H144.201V121.129Z" fill="#65B153"/>
<path d="M151.411 121.129H157.179V115.361H151.411V121.129Z" fill="#65B153"/>
<path d="M158.621 128.34H164.389V122.572H158.621V128.34Z" fill="#81C341"/>
<path d="M165.831 128.34H171.599V122.572H165.831V128.34Z" fill="#81C341"/>
<path d="M158.621 121.129H164.389V115.361H158.621V121.129Z" fill="#81C341"/>
<path d="M165.831 121.129H171.599V115.361H165.831V121.129Z" fill="#81C341"/>
<path d="M173.041 128.34H178.809V122.572H173.041V128.34Z" fill="#81C341"/>
<path d="M180.251 128.34H186.019V122.572H180.251V128.34Z" fill="#81C341"/>
<path d="M173.041 121.129H178.809V115.361H173.041V121.129Z" fill="#81C341"/>
<path d="M180.251 121.129H186.019V115.361H180.251V121.129Z" fill="#81C341"/>
<path d="M173.041 113.631H178.809V107.863H173.041V113.631Z" fill="#89A73E"/>
<path d="M180.251 113.631H186.019V107.863H180.251V113.631Z" fill="#89A73E"/>
<path d="M173.041 106.42H178.809V100.652H173.041V106.42Z" fill="#89A73E"/>
<path d="M180.251 106.42H186.019V100.652H180.251V106.42Z" fill="#89A73E"/>
<path d="M173.041 99.498H178.809V93.73H173.041V99.498Z" fill="#65B153"/>
<path d="M180.251 99.498H186.019V93.73H180.251V99.498Z" fill="#65B153"/>
<path d="M173.041 92.2871H178.809V86.5191H173.041V92.2871Z" fill="#65B153"/>
<path d="M180.251 92.2871H186.019V86.5191H180.251V92.2871Z" fill="#65B153"/>
<path d="M201.881 128.34H207.649V122.572H201.881V128.34Z" fill="#56B848"/>
<path d="M209.091 128.34H214.859V122.572H209.091V128.34Z" fill="#56B848"/>
<path d="M201.881 121.129H207.649V115.361H201.881V121.129Z" fill="#56B848"/>
<path d="M209.091 121.129H214.859V115.361H209.091V121.129Z" fill="#56B848"/>
<path d="M201.881 113.631H207.649V107.863H201.881V113.631Z" fill="#AAC338"/>
<path d="M209.091 113.631H214.859V107.863H209.091V113.631Z" fill="#AAC338"/>
<path d="M201.881 106.42H207.649V100.652H201.881V106.42Z" fill="#AAC338"/>
<path d="M209.091 106.42H214.859V100.652H209.091V106.42Z" fill="#AAC338"/>
<path d="M201.881 99.498H207.649V93.73H201.881V99.498Z" fill="#E9E516"/>
<path d="M209.091 99.498H214.859V93.73H209.091V99.498Z" fill="#E9E516"/>
<path d="M201.881 92.2871H207.649V86.5191H201.881V92.2871Z" fill="#E9E516"/>
<path d="M209.091 92.2871H214.859V86.5191H209.091V92.2871Z" fill="#E9E516"/>
<path d="M216.301 128.34H222.069V122.572H216.301V128.34Z" fill="#C8AD78"/>
<path d="M223.511 128.34H229.279V122.572H223.511V128.34Z" fill="#C8AD78"/>
<path d="M216.301 121.129H222.069V115.361H216.301V121.129Z" fill="#C8AD78"/>
<path d="M223.511 121.129H229.279V115.361H223.511V121.129Z" fill="#C8AD78"/>
<path d="M216.301 113.631H222.069V107.863H216.301V113.631Z" fill="#65B153"/>
<path d="M223.511 113.631H229.279V107.863H223.511V113.631Z" fill="#65B153"/>
<path d="M216.301 106.42H222.069V100.652H216.301V106.42Z" fill="#65B153"/>
<path d="M223.511 106.42H229.279V100.652H223.511V106.42Z" fill="#65B153"/>
<path d="M216.301 99.498H222.069V93.73H216.301V99.498Z" fill="#599F44"/>
<path d="M223.511 99.498H229.279V93.73H223.511V99.498Z" fill="#599F44"/>
<path d="M216.301 92.2871H222.069V86.5191H216.301V92.2871Z" fill="#599F44"/>
<path d="M223.511 92.2871H229.279V86.5191H223.511V92.2871Z" fill="#599F44"/>
<path d="M230.721 128.34H236.489V122.572H230.721V128.34Z" fill="#D18028"/>
<path d="M237.931 128.34H243.699V122.572H237.931V128.34Z" fill="#D18028"/>
<path d="M230.721 121.129H236.489V115.361H230.721V121.129Z" fill="#D18028"/>
<path d="M237.931 121.129H243.699V115.361H237.931V121.129Z" fill="#D18028"/>
<path d="M230.721 113.631H236.489V107.863H230.721V113.631Z" fill="#FCBA36"/>
<path d="M237.931 113.631H243.699V107.863H237.931V113.631Z" fill="#FCBA36"/>
<path d="M230.721 106.42H236.489V100.652H230.721V106.42Z" fill="#FCBA36"/>
<path d="M237.931 106.42H243.699V100.652H237.931V106.42Z" fill="#FCBA36"/>
<path d="M230.721 99.498H236.489V93.73H230.721V99.498Z" fill="#FCBA36"/>
<path d="M237.931 99.498H243.699V93.73H237.931V99.498Z" fill="#FCBA36"/>
<path d="M230.721 92.2871H236.489V86.5191H230.721V92.2871Z" fill="#FCBA36"/>
<path d="M237.931 92.2871H243.699V86.5191H237.931V92.2871Z" fill="#FCBA36"/>
<path d="M259.561 128.34H265.329V122.572H259.561V128.34Z" fill="#FCBA36"/>
<path d="M266.771 128.34H272.539V122.572H266.771V128.34Z" fill="#FCBA36"/>
<path d="M259.561 121.129H265.329V115.361H259.561V121.129Z" fill="#FCBA36"/>
<path d="M266.771 121.129H272.539V115.361H266.771V121.129Z" fill="#FCBA36"/>
<path d="M259.561 113.631H265.329V107.863H259.561V113.631Z" fill="#E8A922"/>
<path d="M266.771 113.631H272.539V107.863H266.771V113.631Z" fill="#E8A922"/>
<path d="M259.561 106.42H265.329V100.652H259.561V106.42Z" fill="#E8A922"/>
<path d="M266.771 106.42H272.539V100.652H266.771V106.42Z" fill="#E8A922"/>
<path d="M273.981 128.34H279.749V122.572H273.981V128.34Z" fill="#F49731"/>
<path d="M281.191 128.34H286.959V122.572H281.191V128.34Z" fill="#F49731"/>
<path d="M273.981 121.129H279.749V115.361H273.981V121.129Z" fill="#F49731"/>
<path d="M281.191 121.129H286.959V115.361H281.191V121.129Z" fill="#F49731"/>
<path d="M273.981 113.631H279.749V107.863H273.981V113.631Z" fill="#FCBA36"/>
<path d="M281.191 113.631H286.959V107.863H281.191V113.631Z" fill="#FCBA36"/>
<path d="M273.981 106.42H279.749V100.652H273.981V106.42Z" fill="#FCBA36"/>
<path d="M281.191 106.42H286.959V100.652H281.191V106.42Z" fill="#FCBA36"/>
<path d="M259.561 99.498H265.329V93.73H259.561V99.498Z" fill="#FCBA36"/>
<path d="M266.771 99.498H272.539V93.73H266.771V99.498Z" fill="#FCBA36"/>
<path d="M259.561 92.2871H265.329V86.5191H259.561V92.2871Z" fill="#FCBA36"/>
<path d="M266.771 92.2871H272.539V86.5191H266.771V92.2871Z" fill="#FCBA36"/>
<path d="M288.401 128.34H294.169V122.572H288.401V128.34Z" fill="#F49731"/>
<path d="M295.611 128.34H301.379V122.572H295.611V128.34Z" fill="#F49731"/>
<path d="M288.401 121.129H294.169V115.361H288.401V121.129Z" fill="#F49731"/>
<path d="M295.611 121.129H301.379V115.361H295.611V121.129Z" fill="#F49731"/>
<path d="M288.401 113.631H294.169V107.863H288.401V113.631Z" fill="#F49731"/>
<path d="M295.611 113.631H301.379V107.863H295.611V113.631Z" fill="#F49731"/>
<path d="M288.401 106.42H294.169V100.652H288.401V106.42Z" fill="#F49731"/>
<path d="M295.611 106.42H301.379V100.652H295.611V106.42Z" fill="#F49731"/>
<path d="M288.401 99.498H294.169V93.73H288.401V99.498Z" fill="#FCBA36"/>
<path d="M295.611 99.498H301.379V93.73H295.611V99.498Z" fill="#FCBA36"/>
<path d="M288.401 92.2871H294.169V86.5191H288.401V92.2871Z" fill="#FCBA36"/>
<path d="M295.611 92.2871H301.379V86.5191H295.611V92.2871Z" fill="#FCBA36"/>
<path d="M302.821 128.34H308.589V122.572H302.821V128.34Z" fill="#FCBA36"/>
<path d="M310.031 128.34H315.799V122.572H310.031V128.34Z" fill="#FCBA36"/>
<path d="M302.821 121.129H308.589V115.361H302.821V121.129Z" fill="#FCBA36"/>
<path d="M310.031 121.129H315.799V115.361H310.031V121.129Z" fill="#FCBA36"/>
<path d="M302.821 113.631H308.589V107.863H302.821V113.631Z" fill="#D18028"/>
<path d="M310.031 113.631H315.799V107.863H310.031V113.631Z" fill="#D18028"/>
<path d="M302.821 106.42H308.589V100.652H302.821V106.42Z" fill="#D18028"/>
<path d="M310.031 106.42H315.799V100.652H310.031V106.42Z" fill="#D18028"/>
<path d="M302.821 99.498H308.589V93.73H302.821V99.498Z" fill="#FCBA36"/>
<path d="M310.031 99.498H315.799V93.73H310.031V99.498Z" fill="#FCBA36"/>
<path d="M302.821 92.2871H308.589V86.5191H302.821V92.2871Z" fill="#FCBA36"/>
<path d="M310.031 92.2871H315.799V86.5191H310.031V92.2871Z" fill="#FCBA36"/>
<path d="M331.661 128.34H337.429V122.572H331.661V128.34Z" fill="#F17934"/>
<path d="M338.871 128.34H344.639V122.572H338.871V128.34Z" fill="#F17934"/>
<path d="M331.661 121.129H337.429V115.361H331.661V121.129Z" fill="#F17934"/>
<path d="M338.871 121.129H344.639V115.361H338.871V121.129Z" fill="#F17934"/>
<path d="M331.661 113.631H337.429V107.863H331.661V113.631Z" fill="#FCBA36"/>
<path d="M338.871 113.631H344.639V107.863H338.871V113.631Z" fill="#FCBA36"/>
<path d="M331.661 106.42H337.429V100.652H331.661V106.42Z" fill="#FCBA36"/>
<path d="M338.871 106.42H344.639V100.652H338.871V106.42Z" fill="#FCBA36"/>
<path d="M331.661 85.0781H337.429V79.3101H331.661V85.0781Z" fill="#FCBA36"/>
<path d="M338.871 85.0781H344.639V79.3101H338.871V85.0781Z" fill="#FCBA36"/>
<path d="M331.661 77.8672H337.429V72.0992H331.661V77.8672Z" fill="#FCBA36"/>
<path d="M338.871 77.8672H344.639V72.0992H338.871V77.8672Z" fill="#FCBA36"/>
<path d="M331.661 99.498H337.429V93.73H331.661V99.498Z" fill="#D18028"/>
<path d="M338.871 99.498H344.639V93.73H338.871V99.498Z" fill="#D18028"/>
<path d="M331.661 92.2871H337.429V86.5191H331.661V92.2871Z" fill="#D18028"/>
<path d="M338.871 92.2871H344.639V86.5191H338.871V92.2871Z" fill="#D18028"/>
<path d="M346.082 128.34H351.85V122.572H346.082V128.34Z" fill="#CC262A"/>
<path d="M353.292 128.34H359.06V122.572H353.292V128.34Z" fill="#CC262A"/>
<path d="M346.082 121.129H351.85V115.361H346.082V121.129Z" fill="#CC262A"/>
<path d="M353.292 121.129H359.06V115.361H353.292V121.129Z" fill="#CC262A"/>
<path d="M374.922 128.34H380.69V122.572H374.922V128.34Z" fill="#CC262A"/>
<path d="M382.132 128.34H387.9V122.572H382.132V128.34Z" fill="#CC262A"/>
<path d="M374.922 121.129H380.69V115.361H374.922V121.129Z" fill="#CC262A"/>
<path d="M382.132 121.129H387.9V115.361H382.132V121.129Z" fill="#CC262A"/>
<path d="M374.922 113.92H380.69V108.152H374.922V113.92Z" fill="#CC262A"/>
<path d="M382.132 113.92H387.9V108.152H382.132V113.92Z" fill="#CC262A"/>
<path d="M374.922 106.709H380.69V100.941H374.922V106.709Z" fill="#CC262A"/>
<path d="M382.132 106.709H387.9V100.941H382.132V106.709Z" fill="#CC262A"/>
<path d="M389.342 113.92H395.11V108.152H389.342V113.92Z" fill="#CC262A"/>
<path d="M396.552 113.92H402.32V108.152H396.552V113.92Z" fill="#CC262A"/>
<path d="M389.342 106.709H395.11V100.941H389.342V106.709Z" fill="#CC262A"/>
<path d="M396.552 106.709H402.32V100.941H396.552V106.709Z" fill="#CC262A"/>
<path d="M403.762 99.498H409.53V93.73H403.762V99.498Z" fill="#CC262A"/>
<path d="M410.972 99.498H416.74V93.73H410.972V99.498Z" fill="#CC262A"/>
<path d="M403.762 92.2871H409.53V86.5191H403.762V92.2871Z" fill="#CC262A"/>
<path d="M410.972 92.2871H416.74V86.5191H410.972V92.2871Z" fill="#CC262A"/>
<path d="M389.342 85.0781H395.11V79.3101H389.342V85.0781Z" fill="#CC262A"/>
<path d="M396.552 85.0781H402.32V79.3101H396.552V85.0781Z" fill="#CC262A"/>
<path d="M389.342 77.8672H395.11V72.0992H389.342V77.8672Z" fill="#CC262A"/>
<path d="M396.552 77.8672H402.32V72.0992H396.552V77.8672Z" fill="#CC262A"/>
<path d="M403.762 128.34H409.53V122.572H403.762V128.34Z" fill="#CF1285"/>
<path d="M410.972 128.34H416.74V122.572H410.972V128.34Z" fill="#CF1285"/>
<path d="M403.762 121.129H409.53V115.361H403.762V121.129Z" fill="#CF1285"/>
<path d="M410.972 121.129H416.74V115.361H410.972V121.129Z" fill="#CF1285"/>
<path d="M418.182 128.34H423.95V122.572H418.182V128.34Z" fill="#CC262A"/>
<path d="M425.392 128.34H431.16V122.572H425.392V128.34Z" fill="#CC262A"/>
<path d="M418.182 121.129H423.95V115.361H418.182V121.129Z" fill="#CC262A"/>
<path d="M425.392 121.129H431.16V115.361H425.392V121.129Z" fill="#CC262A"/>
<path d="M418.182 113.92H423.95V108.152H418.182V113.92Z" fill="#CF1285"/>
<path d="M425.392 113.92H431.16V108.152H425.392V113.92Z" fill="#CF1285"/>
<path d="M418.182 106.709H423.95V100.941H418.182V106.709Z" fill="#CF1285"/>
<path d="M425.392 106.709H431.16V100.941H425.392V106.709Z" fill="#CF1285"/>
<path d="M432.602 128.34H438.37V122.572H432.602V128.34Z" fill="#AE6488"/>
<path d="M439.812 128.34H445.58V122.572H439.812V128.34Z" fill="#AE6488"/>
<path d="M432.602 121.129H438.37V115.361H432.602V121.129Z" fill="#AE6488"/>
<path d="M439.812 121.129H445.58V115.361H439.812V121.129Z" fill="#AE6488"/>
<path d="M432.602 113.92H438.37V108.152H432.602V113.92Z" fill="#B93F97"/>
<path d="M439.812 113.92H445.58V108.152H439.812V113.92Z" fill="#B93F97"/>
<path d="M432.602 106.709H438.37V100.941H432.602V106.709Z" fill="#B93F97"/>
<path d="M439.812 106.709H445.58V100.941H439.812V106.709Z" fill="#B93F97"/>
<path d="M418.182 99.498H423.95V93.73H418.182V99.498Z" fill="#B93F97"/>
<path d="M425.392 99.498H431.16V93.73H425.392V99.498Z" fill="#B93F97"/>
<path d="M418.182 92.2871H423.95V86.5191H418.182V92.2871Z" fill="#B93F97"/>
<path d="M425.392 92.2871H431.16V86.5191H425.392V92.2871Z" fill="#B93F97"/>
<path d="M447.022 128.34H452.79V122.572H447.022V128.34Z" fill="#903A84"/>
<path d="M454.232 128.34H460V122.572H454.232V128.34Z" fill="#903A84"/>
<path d="M447.022 121.129H452.79V115.361H447.022V121.129Z" fill="#903A84"/>
<path d="M454.232 121.129H460V115.361H454.232V121.129Z" fill="#903A84"/>
<path d="M447.022 113.92H452.79V108.152H447.022V113.92Z" fill="#CC262A"/>
<path d="M454.232 113.92H460V108.152H454.232V113.92Z" fill="#CC262A"/>
<path d="M447.022 106.709H452.79V100.941H447.022V106.709Z" fill="#CC262A"/>
<path d="M454.232 106.709H460V100.941H454.232V106.709Z" fill="#CC262A"/>
<path d="M447.022 99.498H452.79V93.73H447.022V99.498Z" fill="#CC262A"/>
<path d="M454.232 99.498H460V93.73H454.232V99.498Z" fill="#CC262A"/>
<path d="M447.022 92.2871H452.79V86.5191H447.022V92.2871Z" fill="#CC262A"/>
<path d="M454.232 92.2871H460V86.5191H454.232V92.2871Z" fill="#CC262A"/>
<path d="M374.922 56.2383H380.69V50.4703H374.922V56.2383Z" fill="#CC262A"/>
<path d="M382.132 56.2383H387.9V50.4703H382.132V56.2383Z" fill="#CC262A"/>
<path d="M374.922 49.0273H380.69V43.2593H374.922V49.0273Z" fill="#CC262A"/>
<path d="M382.132 49.0273H387.9V43.2593H382.132V49.0273Z" fill="#CC262A"/>
<path d="M389.342 128.34H395.11V122.572H389.342V128.34Z" fill="#E02E36"/>
<path d="M396.552 128.34H402.32V122.572H396.552V128.34Z" fill="#E02E36"/>
<path d="M389.342 121.129H395.11V115.361H389.342V121.129Z" fill="#E02E36"/>
<path d="M396.552 121.129H402.32V115.361H396.552V121.129Z" fill="#E02E36"/>
<path d="M346.082 113.631H351.85V107.863H346.082V113.631Z" fill="#AE6488"/>
<path d="M353.292 113.631H359.06V107.863H353.292V113.631Z" fill="#AE6488"/>
<path d="M346.082 106.42H351.85V100.652H346.082V106.42Z" fill="#AE6488"/>
<path d="M353.292 106.42H359.06V100.652H353.292V106.42Z" fill="#AE6488"/>
<path d="M346.082 99.498H351.85V93.73H346.082V99.498Z" fill="#CC262A"/>
<path d="M353.292 99.498H359.06V93.73H353.292V99.498Z" fill="#CC262A"/>
<path d="M346.082 92.2871H351.85V86.5191H346.082V92.2871Z" fill="#CC262A"/>
<path d="M353.292 92.2871H359.06V86.5191H353.292V92.2871Z" fill="#CC262A"/>
<path d="M360.501 128.34H366.27V122.572H360.501V128.34Z" fill="#B93F97"/>
<path d="M367.711 128.34H373.479V122.572H367.711V128.34Z" fill="#B93F97"/>
<path d="M360.501 121.129H366.27V115.361H360.501V121.129Z" fill="#B93F97"/>
<path d="M367.711 121.129H373.479V115.361H367.711V121.129Z" fill="#B93F97"/>
<path d="M360.501 113.631H366.27V107.863H360.501V113.631Z" fill="#FDEDF4"/>
<path d="M367.711 113.631H373.479V107.863H367.711V113.631Z" fill="#FDEDF4"/>
<path d="M360.501 106.42H366.27V100.652H360.501V106.42Z" fill="#FDEDF4"/>
<path d="M367.711 106.42H373.479V100.652H367.711V106.42Z" fill="#FDEDF4"/>
<path d="M360.501 99.498H366.27V93.73H360.501V99.498Z" fill="#B93F97"/>
<path d="M367.711 99.498H373.479V93.73H367.711V99.498Z" fill="#B93F97"/>
<path d="M360.501 92.2871H366.27V86.5191H360.501V92.2871Z" fill="#B93F97"/>
<path d="M367.711 92.2871H373.479V86.5191H367.711V92.2871Z" fill="#B93F97"/>
<path d="M317.241 128.34H323.009V122.572H317.241V128.34Z" fill="#D18028"/>
<path d="M324.451 128.34H330.219V122.572H324.451V128.34Z" fill="#D18028"/>
<path d="M317.241 121.129H323.009V115.361H317.241V121.129Z" fill="#D18028"/>
<path d="M324.451 121.129H330.219V115.361H324.451V121.129Z" fill="#D18028"/>
<path d="M317.241 99.498H323.009V93.73H317.241V99.498Z" fill="#F17934"/>
<path d="M324.451 99.498H330.219V93.73H324.451V99.498Z" fill="#F17934"/>
<path d="M317.241 92.2871H323.009V86.5191H317.241V92.2871Z" fill="#F17934"/>
<path d="M324.451 92.2871H330.219V86.5191H324.451V92.2871Z" fill="#F17934"/>
<path d="M288.401 70.6582H294.169V64.8902H288.401V70.6582Z" fill="#E6A439"/>
<path d="M295.611 70.6582H301.379V64.8902H295.611V70.6582Z" fill="#E6A439"/>
<path d="M288.401 63.4473H294.169V57.6792H288.401V63.4473Z" fill="#E6A439"/>
<path d="M295.611 63.4473H301.379V57.6792H295.611V63.4473Z" fill="#E6A439"/>
<path d="M245.141 113.631H250.909V107.863H245.141V113.631Z" fill="#E8A922"/>
<path d="M252.351 113.631H258.119V107.863H252.351V113.631Z" fill="#E8A922"/>
<path d="M245.141 106.42H250.909V100.652H245.141V106.42Z" fill="#E8A922"/>
<path d="M252.351 106.42H258.119V100.652H252.351V106.42Z" fill="#E8A922"/>
<path d="M245.141 128.34H250.909V122.572H245.141V128.34Z" fill="white"/>
<path d="M252.351 128.34H258.119V122.572H252.351V128.34Z" fill="white"/>
<path d="M245.141 121.129H250.909V115.361H245.141V121.129Z" fill="white"/>
<path d="M252.351 121.129H258.119V115.361H252.351V121.129Z" fill="white"/>
<path d="M245.141 99.498H250.909V93.73H245.141V99.498Z" fill="#F17934"/>
<path d="M252.351 99.498H258.119V93.73H252.351V99.498Z" fill="#F17934"/>
<path d="M245.141 92.2871H250.909V86.5191H245.141V92.2871Z" fill="#F17934"/>
<path d="M252.351 92.2871H258.119V86.5191H252.351V92.2871Z" fill="#F17934"/>
<path d="M230.721 85.0781H236.489V79.3101H230.721V85.0781Z" fill="#FCBA36"/>
<path d="M237.931 85.0781H243.699V79.3101H237.931V85.0781Z" fill="#FCBA36"/>
<path d="M230.721 77.8672H236.489V72.0992H230.721V77.8672Z" fill="#FCBA36"/>
<path d="M237.931 77.8672H243.699V72.0992H237.931V77.8672Z" fill="#FCBA36"/>
<path d="M201.881 47.5859H207.649V41.8179H201.881V47.5859Z" fill="#3954A3"/>
<path d="M209.091 47.5859H214.859V41.8179H209.091V47.5859Z" fill="#3954A3"/>
<path d="M201.881 40.375H207.649V34.607H201.881V40.375Z" fill="#3954A3"/>
<path d="M209.091 40.375H214.859V34.607H209.091V40.375Z" fill="#3954A3"/>
<path d="M144.201 12.9785H149.969V7.21049H144.201V12.9785Z" fill="#CC262A"/>
<path d="M151.411 12.9785H157.179V7.21049H151.411V12.9785Z" fill="#CC262A"/>
<path d="M144.201 5.76758H149.969V-0.000447273H144.201V5.76758Z" fill="#CC262A"/>
<path d="M151.411 5.76758H157.179V-0.000447273H151.411V5.76758Z" fill="#CC262A"/>
<path d="M432.602 33.166H438.37V27.398H432.602V33.166Z" fill="#5363AD"/>
<path d="M439.812 33.166H445.58V27.398H439.812V33.166Z" fill="#5363AD"/>
<path d="M432.602 25.9551H438.37V20.1871H432.602V25.9551Z" fill="#5363AD"/>
<path d="M439.812 25.9551H445.58V20.1871H439.812V25.9551Z" fill="#5363AD"/>
<path d="M187.461 113.631H193.229V107.863H187.461V113.631Z" fill="#56B848"/>
<path d="M194.671 113.631H200.439V107.863H194.671V113.631Z" fill="#56B848"/>
<path d="M187.461 106.42H193.229V100.652H187.461V106.42Z" fill="#56B848"/>
<path d="M194.671 106.42H200.439V100.652H194.671V106.42Z" fill="#56B848"/>
<path d="M187.461 128.34H193.229V122.572H187.461V128.34Z" fill="white"/>
<path d="M194.671 128.34H200.439V122.572H194.671V128.34Z" fill="white"/>
<path d="M187.461 121.129H193.229V115.361H187.461V121.129Z" fill="white"/>
<path d="M194.671 121.129H200.439V115.361H194.671V121.129Z" fill="white"/>
<path d="M187.461 85.0781H193.229V79.3101H187.461V85.0781Z" fill="white"/>
<path d="M194.671 85.0781H200.439V79.3101H194.671V85.0781Z" fill="white"/>
<path d="M187.461 77.8672H193.229V72.0992H187.461V77.8672Z" fill="white"/>
<path d="M194.671 77.8672H200.439V72.0992H194.671V77.8672Z" fill="white"/>
<path d="M187.461 99.498H193.229V93.73H187.461V99.498Z" fill="#AAC338"/>
<path d="M194.671 99.498H200.439V93.73H194.671V99.498Z" fill="#AAC338"/>
<path d="M187.461 92.2871H193.229V86.5191H187.461V92.2871Z" fill="#AAC338"/>
<path d="M194.671 92.2871H200.439V86.5191H194.671V92.2871Z" fill="#AAC338"/>
<path d="M173.041 85.0781H178.809V79.3101H173.041V85.0781Z" fill="#65B153"/>
<path d="M180.251 85.0781H186.019V79.3101H180.251V85.0781Z" fill="#65B153"/>
<path d="M173.041 77.8672H178.809V72.0992H173.041V77.8672Z" fill="#65B153"/>
<path d="M180.251 77.8672H186.019V72.0992H180.251V77.8672Z" fill="#65B153"/>
<path d="M158.621 113.92H164.389V108.152H158.621V113.92Z" fill="#65B153"/>
<path d="M165.831 113.92H171.599V108.152H165.831V113.92Z" fill="#65B153"/>
<path d="M158.621 106.709H164.389V100.941H158.621V106.709Z" fill="#65B153"/>
<path d="M165.831 106.709H171.599V100.941H165.831V106.709Z" fill="#65B153"/>
<path d="M158.621 99.498H164.389V93.73H158.621V99.498Z" fill="#56B848"/>
<path d="M165.831 99.498H171.599V93.73H165.831V99.498Z" fill="#56B848"/>
<path d="M158.621 92.2871H164.389V86.5191H158.621V92.2871Z" fill="#56B848"/>
<path d="M165.831 92.2871H171.599V86.5191H165.831V92.2871Z" fill="#56B848"/>
<path d="M115.361 99.498H121.129V93.73H115.361V99.498Z" fill="#65B153"/>
<path d="M122.571 99.498H128.339V93.73H122.571V99.498Z" fill="#65B153"/>
<path d="M115.361 92.2871H121.129V86.5191H115.361V92.2871Z" fill="#65B153"/>
<path d="M122.571 92.2871H128.339V86.5191H122.571V92.2871Z" fill="#65B153"/>
<path d="M115.361 113.92H121.129V108.152H115.361V113.92Z" fill="#C8D42C"/>
<path d="M122.571 113.92H128.339V108.152H122.571V113.92Z" fill="#C8D42C"/>
<path d="M115.361 106.709H121.129V100.941H115.361V106.709Z" fill="#C8D42C"/>
<path d="M122.571 106.709H128.339V100.941H122.571V106.709Z" fill="#C8D42C"/>
<path d="M129.781 113.92H135.549V108.152H129.781V113.92Z" fill="#89A73E"/>
<path d="M136.99 113.92H142.758V108.152H136.99V113.92Z" fill="#89A73E"/>
<path d="M129.781 106.709H135.549V100.941H129.781V106.709Z" fill="#89A73E"/>
<path d="M136.99 106.709H142.758V100.941H136.99V106.709Z" fill="#89A73E"/>
<path d="M144.201 113.92H149.969V108.152H144.201V113.92Z" fill="white"/>
<path d="M151.411 113.92H157.179V108.152H151.411V113.92Z" fill="white"/>
<path d="M144.201 106.709H149.969V100.941H144.201V106.709Z" fill="white"/>
<path d="M151.411 106.709H157.179V100.941H151.411V106.709Z" fill="white"/>
<path d="M129.781 128.34H135.549V122.572H129.781V128.34Z" fill="#C8D42C"/>
<path d="M136.99 128.34H142.758V122.572H136.99V128.34Z" fill="#C8D42C"/>
<path d="M129.781 121.129H135.549V115.361H129.781V121.129Z" fill="#C8D42C"/>
<path d="M136.99 121.129H142.758V115.361H136.99V121.129Z" fill="#C8D42C"/>
<path d="M72.1003 85.0781H77.8684V79.3101H72.1003V85.0781Z" fill="#5363AD"/>
<path d="M79.3103 85.0781H85.0783V79.3101H79.3103V85.0781Z" fill="#5363AD"/>
<path d="M72.1003 77.8672H77.8684V72.0992H72.1003V77.8672Z" fill="#5363AD"/>
<path d="M79.3103 77.8672H85.0783V72.0992H79.3103V77.8672Z" fill="#5363AD"/>
<path d="M14.4202 99.498H20.1882V93.73H14.4202V99.498Z" fill="#313B97"/>
<path d="M21.6301 99.498H27.3982V93.73H21.6301V99.498Z" fill="#313B97"/>
<path d="M14.4202 92.2871H20.1882V86.5191H14.4202V92.2871Z" fill="#313B97"/>
<path d="M21.6301 92.2871H27.3982V86.5191H21.6301V92.2871Z" fill="#313B97"/>
<path d="M0 113.92H5.76802V108.152H0V113.92Z" fill="#5363AD"/>
<path d="M7.20996 113.92H12.978V108.152H7.20996V113.92Z" fill="#5363AD"/>
<path d="M0 106.709H5.76802V100.941H0V106.709Z" fill="#5363AD"/>
<path d="M7.20996 106.709H12.978V100.941H7.20996V106.709Z" fill="#5363AD"/>
<path d="M14.4202 128.34H20.1882V122.572H14.4202V128.34Z" fill="#5363AD"/>
<path d="M21.6301 128.34H27.3982V122.572H21.6301V128.34Z" fill="#5363AD"/>
<path d="M14.4202 121.129H20.1882V115.361H14.4202V121.129Z" fill="#5363AD"/>
<path d="M21.6301 121.129H27.3982V115.361H21.6301V121.129Z" fill="#5363AD"/>
<path d="M72.1003 128.34H77.8684V122.572H72.1003V128.34Z" fill="#5363AD"/>
<path d="M79.3103 128.34H85.0783V122.572H79.3103V128.34Z" fill="#5363AD"/>
<path d="M72.1003 121.129H77.8684V115.361H72.1003V121.129Z" fill="#5363AD"/>
<path d="M79.3103 121.129H85.0783V115.361H79.3103V121.129Z" fill="#5363AD"/>
<path d="M72.1003 113.92H77.8684V108.152H72.1003V113.92Z" fill="#5363AD"/>
<path d="M79.3103 113.92H85.0783V108.152H79.3103V113.92Z" fill="#5363AD"/>
<path d="M72.1003 106.709H77.8684V100.941H72.1003V106.709Z" fill="#5363AD"/>
<path d="M79.3103 106.709H85.0783V100.941H79.3103V106.709Z" fill="#5363AD"/>
<path d="M28.8401 128.34H34.6081V122.572H28.8401V128.34Z" fill="#0A7E9A"/>
<path d="M36.05 128.34H41.8181V122.572H36.05V128.34Z" fill="#0A7E9A"/>
<path d="M28.8401 121.129H34.6081V115.361H28.8401V121.129Z" fill="#0A7E9A"/>
<path d="M36.05 121.129H41.8181V115.361H36.05V121.129Z" fill="#0A7E9A"/>
<path d="M43.2603 128.34H49.0283V122.572H43.2603V128.34Z" fill="#0A7E9A"/>
<path d="M50.4702 128.34H56.2382V122.572H50.4702V128.34Z" fill="#0A7E9A"/>
<path d="M43.2603 121.129H49.0283V115.361H43.2603V121.129Z" fill="#0A7E9A"/>
<path d="M50.4702 121.129H56.2382V115.361H50.4702V121.129Z" fill="#0A7E9A"/>
<path d="M57.6802 128.34H63.4482V122.572H57.6802V128.34Z" fill="#3FABA9"/>
<path d="M64.8901 128.34H70.6582V122.572H64.8901V128.34Z" fill="#3FABA9"/>
<path d="M57.6802 121.129H63.4482V115.361H57.6802V121.129Z" fill="#3FABA9"/>
<path d="M64.8901 121.129H70.6582V115.361H64.8901V121.129Z" fill="#3FABA9"/>
<path d="M43.2603 33.166H49.0283V27.398H43.2603V33.166Z" fill="#FCBA36"/>
<path d="M50.4702 33.166H56.2382V27.398H50.4702V33.166Z" fill="#FCBA36"/>
<path d="M43.2603 25.9551H49.0283V20.1871H43.2603V25.9551Z" fill="#FCBA36"/>
<path d="M50.4702 25.9551H56.2382V20.1871H50.4702V25.9551Z" fill="#FCBA36"/>
<path d="M389.342 12.9785H395.11V7.21049H389.342V12.9785Z" fill="#65B153"/>
<path d="M396.552 12.9785H402.32V7.21049H396.552V12.9785Z" fill="#65B153"/>
<path d="M389.342 5.76758H395.11V-0.000447273H389.342V5.76758Z" fill="#65B153"/>
<path d="M396.552 5.76758H402.32V-0.000447273H396.552V5.76758Z" fill="#65B153"/>
</svg>
