<svg width="188" height="36" viewBox="0 0 188 36" fill="none" xmlns="http://www.w3.org/2000/svg">
<path d="M25.8806 7.2207H20.4182V1.75959H25.8806V7.2207Z" fill="#FCBA36"/>
<path d="M71.4241 5.46094H65.9624V-0.00090456H71.4241V5.46094Z" fill="#CC262A"/>
<path d="M157.56 6.95312H152.099V1.49104H157.56V6.95312Z" fill="#65B153"/>
<path d="M187.389 8.52344H181.928V3.06208H187.389V8.52344Z" fill="#5363AD"/>
<path d="M163.616 35.6074H157.144V30.2152H163.616V35.6074Z" fill="#CC242B"/>
<path d="M124.36 35.6074H117.887V30.2147H124.36V35.6074Z" fill="#E6A439"/>
<path d="M8.3565 11.2502L8.2099 13.5585C8.86613 12.6425 9.64802 11.9586 10.5556 11.5067C11.4631 11.0426 12.4964 10.8105 13.6552 10.8105C15.9171 10.8105 17.6974 11.7265 18.9959 13.5585C19.7079 12.6425 20.5108 11.9586 21.4044 11.5067C22.298 11.0426 23.2893 10.8105 24.3784 10.8105C25.8165 10.8105 27.0033 11.1159 27.9388 11.7265C28.8882 12.3372 29.4956 13.0883 29.7609 13.9799C30.0262 14.8592 30.1588 16.2943 30.1588 18.2851V35.5607H21.9489V19.714C21.9489 17.6378 21.8651 16.3554 21.6976 15.8668C21.544 15.3661 21.174 15.1157 20.5876 15.1157C19.9872 15.1157 19.5962 15.36 19.4147 15.8485C19.2472 16.337 19.1634 17.6255 19.1634 19.714V35.5607H10.9535V20.117C10.9535 17.7355 10.8837 16.3065 10.7441 15.8302C10.6184 15.3539 10.2554 15.1157 9.655 15.1157C9.27802 15.1157 8.95688 15.244 8.6916 15.5004C8.42631 15.7447 8.27971 16.05 8.25178 16.4164C8.22386 16.7706 8.2099 17.5339 8.2099 18.7064V35.5607H0V11.2502H8.3565Z" fill="white"/>
<path d="M58.5273 20.6666H50.5897V19.0362C50.5897 17.1553 50.8341 15.7081 51.3227 14.6944C51.8254 13.6684 52.8237 12.7647 54.3177 11.983C55.8116 11.2014 57.7524 10.8105 60.14 10.8105C63.0023 10.8105 65.1595 11.2563 66.6116 12.1479C68.0637 13.0273 68.9363 14.1142 69.2295 15.4088C69.5227 16.6912 69.6693 19.3415 69.6693 23.3597V35.5607H61.4385V33.399C60.9219 34.2661 60.2517 34.9195 59.4279 35.3592C58.6181 35.7867 57.6477 36.0004 56.5168 36.0004C55.0367 36.0004 53.6754 35.6401 52.4327 34.9195C51.2041 34.1867 50.5897 32.5929 50.5897 30.138V28.1412C50.5897 26.3214 50.9178 25.0817 51.5741 24.4222C52.2303 23.7627 53.8569 22.9933 56.4539 22.1139C59.2324 21.1613 60.7194 20.5201 60.9149 20.1903C61.1104 19.8606 61.2081 19.1888 61.2081 18.1751C61.2081 16.905 61.0964 16.0806 60.873 15.702C60.6636 15.3111 60.3075 15.1157 59.8049 15.1157C59.2324 15.1157 58.8764 15.2806 58.7368 15.6104C58.5971 15.9279 58.5273 16.7645 58.5273 18.1202V20.6666ZM61.2081 24.0009C59.8538 24.868 59.0649 25.5947 58.8415 26.1809C58.6321 26.7672 58.5273 27.6099 58.5273 28.7091C58.5273 29.967 58.6181 30.7792 58.7996 31.1456C58.9951 31.512 59.3721 31.6952 59.9306 31.6952C60.4611 31.6952 60.8032 31.5548 60.9568 31.2739C61.1243 30.9807 61.2081 30.2235 61.2081 29.0022V24.0009Z" fill="white"/>
<path d="M107.944 11.2502L103.986 35.5607H92.9486L88.697 11.2502H96.2577L98.6243 28.9839C98.8058 27.6893 99.113 24.5138 99.5458 19.4575C99.7971 16.6363 100.076 13.9005 100.384 11.2502H107.944Z" fill="white"/>
<path d="M146.261 23.836H135.307V29.0938C135.307 30.193 135.398 30.9014 135.58 31.2189C135.761 31.5364 136.11 31.6952 136.627 31.6952C137.269 31.6952 137.695 31.4876 137.904 31.0723C138.128 30.6449 138.24 29.8266 138.24 28.6175V25.4115H146.261V27.2068C146.261 28.7091 146.149 29.8632 145.926 30.6693C145.716 31.4754 145.214 32.3364 144.418 33.2524C143.622 34.1684 142.61 34.8584 141.381 35.3226C140.166 35.7744 138.637 36.0004 136.794 36.0004C135.007 36.0004 133.43 35.7744 132.061 35.3226C130.693 34.8707 129.625 34.2539 128.857 33.4722C128.103 32.6784 127.579 31.8112 127.286 30.8708C126.993 29.9182 126.846 28.5381 126.846 26.7305V19.6407C126.846 17.5156 127.174 15.8424 127.831 14.6211C128.487 13.3875 129.562 12.4471 131.056 11.7998C132.55 11.1403 134.267 10.8105 136.208 10.8105C138.582 10.8105 140.536 11.2075 142.072 12.0013C143.622 12.783 144.704 13.8272 145.319 15.134C145.947 16.4286 146.261 18.2545 146.261 20.6117V23.836ZM137.779 19.8789V18.1019C137.779 16.8439 137.702 16.0317 137.548 15.6653C137.395 15.2989 137.081 15.1157 136.606 15.1157C136.02 15.1157 135.657 15.2745 135.517 15.592C135.377 15.8974 135.307 16.734 135.307 18.1019V19.8789H137.779Z" fill="white"/>
<path d="M175.53 11.2502L175.383 13.4853C175.998 12.5937 176.745 11.9281 177.624 11.4884C178.518 11.0365 179.544 10.8105 180.703 10.8105C182.155 10.8105 183.342 11.1098 184.264 11.7082C185.185 12.3067 185.778 13.0639 186.044 13.9799C186.309 14.8837 186.442 16.3981 186.442 18.5232V35.5607H177.98V18.7247C177.98 17.0515 177.918 16.0317 177.792 15.6653C177.666 15.2989 177.317 15.1157 176.745 15.1157C176.144 15.1157 175.767 15.3295 175.614 15.7569C175.46 16.1722 175.383 17.2958 175.383 19.1278V35.5607H166.922V11.2502H175.53Z" fill="white"/>
<path d="M48.0565 35.1835C48.0565 35.4172 47.8285 35.6074 47.5488 35.6074H41.5177C41.2365 35.6074 41.0098 35.4172 41.0098 35.1835V30.1578C41.0098 29.9239 41.2365 29.7342 41.5177 29.7342H47.5488C47.8285 29.7342 48.0565 29.9239 48.0565 30.1578V35.1835Z" fill="#5363AD"/>
<path d="M88.5131 35.1835C88.5131 35.4172 88.2851 35.6074 88.0054 35.6074H81.9735C81.6938 35.6074 81.4656 35.4172 81.4656 35.1835V30.1578C81.4656 29.9239 81.6938 29.7342 81.9735 29.7342H88.0054C88.2851 29.7342 88.5131 29.9239 88.5131 30.1578V35.1835Z" fill="#65B153"/>
</svg>
