<svg width="157" height="30" viewBox="0 0 157 30" fill="none" xmlns="http://www.w3.org/2000/svg">
<path d="M21.5677 6.01758H17.0156V1.46658H21.5677V6.01758Z" fill="#FCBA36"/>
<path d="M59.5209 4.55078H54.9695V-0.00082922H59.5209V4.55078Z" fill="#CC262A"/>
<path d="M131.302 5.79492H126.751V1.24311H131.302V5.79492Z" fill="#65B153"/>
<path d="M156.16 7.10352H151.609V2.55231H156.16V7.10352Z" fill="#5363AD"/>
<path d="M136.349 29.6738H130.955V25.1802H136.349V29.6738Z" fill="#CC242B"/>
<path d="M103.635 29.6738H98.241V25.1798H103.635V29.6738Z" fill="#E6A439"/>
<path d="M6.96387 9.37422L6.84169 11.2978C7.38856 10.5345 8.04015 9.96453 8.79646 9.58795C9.55277 9.20119 10.4138 9.00781 11.3795 9.00781C13.2645 9.00781 14.748 9.77115 15.8301 11.2978C16.4236 10.5345 17.0926 9.96453 17.8373 9.58795C18.5819 9.20119 19.4081 9.00781 20.3156 9.00781C21.5141 9.00781 22.5031 9.26226 23.2827 9.77115C24.0739 10.28 24.5801 10.906 24.8011 11.649C25.0222 12.3818 25.1327 13.5777 25.1327 15.2367V29.6333H18.2911V16.4275C18.2911 14.6972 18.2212 13.6286 18.0816 13.2215C17.9536 12.8042 17.6453 12.5955 17.1566 12.5955C16.6563 12.5955 16.3305 12.7991 16.1792 13.2062C16.0396 13.6133 15.9698 14.6871 15.9698 16.4275V29.6333H9.12807V16.7634C9.12807 14.7787 9.0699 13.5879 8.95354 13.1909C8.84882 12.794 8.5463 12.5955 8.04597 12.5955C7.73181 12.5955 7.46419 12.7024 7.24312 12.9161C7.02204 13.1197 6.89987 13.3741 6.8766 13.6795C6.85333 13.9746 6.84169 14.6107 6.84169 15.5878V29.6333H0V9.37422H6.96387Z" fill="#1F1F1F"/>
<path d="M48.7736 17.2214H42.1588V15.8626C42.1588 14.2952 42.3624 13.0891 42.7697 12.2444C43.1885 11.3894 44.0205 10.6363 45.2655 9.98489C46.5105 9.3335 48.1278 9.00781 50.1175 9.00781C52.5028 9.00781 54.3005 9.37931 55.5106 10.1223C56.7207 10.8551 57.4479 11.7609 57.6922 12.8398C57.9366 13.9085 58.0587 16.1171 58.0587 19.4656V29.6333H51.1996V27.8318C50.7691 28.5544 50.2106 29.0989 49.5241 29.4654C48.8492 29.8216 48.0405 29.9997 47.0981 29.9997C45.8647 29.9997 44.7302 29.6994 43.6947 29.099C42.6707 28.4883 42.1588 27.1601 42.1588 25.1143V23.4502C42.1588 21.9337 42.4322 20.9007 42.9791 20.3511C43.526 19.8015 44.8815 19.1603 47.0457 18.4274C49.3612 17.6336 50.6004 17.0992 50.7633 16.8244C50.9262 16.5496 51.0076 15.9898 51.0076 15.1451C51.0076 14.0866 50.9145 13.3996 50.7284 13.0841C50.5538 12.7584 50.2571 12.5955 49.8382 12.5955C49.3612 12.5955 49.0645 12.7329 48.9481 13.0077C48.8318 13.2723 48.7736 13.9695 48.7736 15.0993V17.2214ZM51.0076 19.9999C49.879 20.7226 49.2216 21.3281 49.0354 21.8167C48.8609 22.3052 48.7736 23.0075 48.7736 23.9235C48.7736 24.9718 48.8492 25.6486 49.0005 25.954C49.1634 26.2593 49.4775 26.412 49.943 26.412C50.3851 26.412 50.6702 26.2949 50.7982 26.0609C50.9378 25.8166 51.0076 25.1856 51.0076 24.1678V19.9999Z" fill="#1F1F1F"/>
<path d="M89.955 9.37422L86.6563 29.6333H77.4584L73.9154 9.37422H80.216L82.1883 24.1525C82.3395 23.0736 82.5955 20.4274 82.9562 16.2138C83.1657 13.8627 83.3984 11.5828 83.6543 9.37422H89.955Z" fill="#1F1F1F"/>
<path d="M121.886 19.8625H112.758V24.2441C112.758 25.1601 112.834 25.7504 112.985 26.0151C113.136 26.2797 113.427 26.412 113.858 26.412C114.393 26.412 114.748 26.239 114.922 25.8929C115.108 25.5367 115.202 24.8548 115.202 23.8472V21.1755H121.886V22.6716C121.886 23.9235 121.793 24.8853 121.607 25.557C121.432 26.2288 121.013 26.9463 120.35 27.7097C119.687 28.473 118.843 29.0481 117.82 29.4348C116.807 29.8114 115.533 29.9997 113.997 29.9997C112.508 29.9997 111.193 29.8114 110.053 29.4348C108.913 29.0582 108.022 28.5443 107.382 27.8929C106.754 27.2313 106.318 26.5087 106.073 25.725C105.829 24.9311 105.707 23.781 105.707 22.2747V16.3664C105.707 14.5955 105.98 13.2011 106.527 12.1833C107.074 11.1553 107.97 10.3716 109.215 9.83222C110.46 9.28262 111.891 9.00781 113.509 9.00781C115.487 9.00781 117.116 9.33859 118.395 10.0002C119.687 10.6515 120.589 11.5217 121.101 12.6108C121.624 13.6896 121.886 15.2112 121.886 17.1756V19.8625ZM114.818 16.5649V15.084C114.818 14.0357 114.754 13.3589 114.626 13.0535C114.498 12.7482 114.236 12.5955 113.84 12.5955C113.351 12.5955 113.049 12.7278 112.933 12.9925C112.816 13.2469 112.758 13.9441 112.758 15.084V16.5649H114.818Z" fill="#1F1F1F"/>
<path d="M146.277 9.37422L146.155 11.2368C146.667 10.4938 147.29 9.93909 148.023 9.57269C148.767 9.1961 149.623 9.00781 150.588 9.00781C151.799 9.00781 152.788 9.25717 153.556 9.75589C154.323 10.2546 154.818 10.8856 155.039 11.649C155.26 12.4021 155.371 13.6642 155.371 15.4351V29.6333H148.32V15.6031C148.32 14.2087 148.267 13.3589 148.162 13.0535C148.058 12.7482 147.767 12.5955 147.29 12.5955C146.789 12.5955 146.475 12.7736 146.347 13.1299C146.219 13.4759 146.155 14.4123 146.155 15.939V29.6333H139.104V9.37422H146.277Z" fill="#1F1F1F"/>
<path d="M40.0479 29.3206C40.0479 29.5153 39.8579 29.6738 39.6248 29.6738H34.5988C34.3645 29.6738 34.1755 29.5153 34.1755 29.3206V25.1324C34.1755 24.9375 34.3645 24.7794 34.5988 24.7794H39.6248C39.8579 24.7794 40.0479 24.9375 40.0479 25.1324V29.3206Z" fill="#5363AD"/>
<path d="M73.7622 29.3206C73.7622 29.5153 73.5722 29.6738 73.3391 29.6738H68.3125C68.0794 29.6738 67.8892 29.5153 67.8892 29.3206V25.1324C67.8892 24.9375 68.0794 24.7794 68.3125 24.7794H73.3391C73.5722 24.7794 73.7622 24.9375 73.7622 25.1324V29.3206Z" fill="#65B153"/>
</svg>
