<svg width="13" height="13" viewBox="0 0 13 13" fill="none" xmlns="http://www.w3.org/2000/svg">
<path d="M2.50003 0C1.12503 0 3.02914e-05 1.125 3.02914e-05 2.5C3.02914e-05 3.875 1.12503 5 2.50003 5C3.87503 5 5.00003 3.875 5.00003 2.5C5.00003 1.125 3.87503 0 2.50003 0ZM7.50003 0C7.22269 0 7.00003 0.222656 7.00003 0.5V4.5C7.00003 4.77734 7.22269 5 7.50003 5H11.5C11.7774 5 12 4.77734 12 4.5V0.5C12 0.222656 11.7774 0 11.5 0H7.50003ZM2.50003 1C3.33597 1 4.00003 1.66406 4.00003 2.5C4.00003 3.33594 3.33597 4 2.50003 4C1.66409 4 1.00003 3.33594 1.00003 2.5C1.00003 1.66406 1.66409 1 2.50003 1ZM8.00003 1H11V4H8.00003V1ZM3.00784 7C2.83206 6.99609 2.668 7.08594 2.57816 7.23438L0.0781553 11.2344C-0.0195007 11.3867 -0.0273137 11.582 0.0625303 11.7422C0.152374 11.9023 0.316436 12 0.50003 12H5.50003C5.68362 12 5.84769 11.9023 5.93753 11.7422C6.02737 11.582 6.01956 11.3867 5.92191 11.2344L3.42191 7.23438C3.33206 7.08984 3.17581 7 3.00784 7ZM8.45316 7C8.23441 7 8.043 7.14063 7.97659 7.35156L7.02347 10.4414C6.96097 10.6406 7.03128 10.8594 7.19534 10.9883L9.69925 12.8945C9.87503 13.0312 10.125 13.0312 10.3008 12.8945L12.8008 10.9883C12.9688 10.8594 13.0391 10.6406 12.9805 10.4414L12.0235 7.35156C11.9571 7.14063 11.7657 7 11.5469 7H8.45316ZM8.82425 8H11.1758L11.9219 10.4062L10 11.875L8.07816 10.4062L8.82425 8ZM3.00003 8.44141L4.59769 11H1.40237L3.00003 8.44141Z" fill="white"/>
</svg>
