<svg width="16" height="16" viewBox="0 0 16 16" fill="none" xmlns="http://www.w3.org/2000/svg">
<path d="M3.25867 2L2.55639 2.70565L4.5119 4.68148C1.76487 5.86148 0.6552 8.15485 0.59312 8.28814L0.5 8.49984L0.59312 8.71153C0.6746 8.88795 2.64563 13.016 7.99612 13.016C9.57915 13.016 10.8595 12.6514 11.8877 12.1379L13.7307 14L14.433 13.2865L12.0546 10.8834L11.8722 10.703C11.8761 10.703 11.8761 10.703 11.8761 10.6991L11.1505 9.96602C11.1467 9.96602 11.1467 9.96602 11.1467 9.96602L9.46275 8.26854C9.46275 8.26854 9.46663 8.26462 9.46275 8.26462L8.2328 7.01797H8.22892L6.54501 5.31656H6.54889L5.55173 4.31297C5.55173 4.31297 5.54785 4.30905 5.54785 4.31297L3.25867 2ZM7.99612 3.98366C7.54604 3.98366 7.12701 4.02287 6.72349 4.07775L7.66244 5.01862C7.77496 5.01078 7.8836 4.98726 7.99612 4.98726C9.91671 4.98726 11.4765 6.56321 11.4765 8.49984C11.4765 8.61744 11.4532 8.72721 11.4415 8.84482L12.2913 9.69944C12.3999 9.31918 12.4697 8.91931 12.4697 8.49984C12.4697 7.50016 12.1361 6.5789 11.5851 5.83012C13.238 6.6965 14.0993 7.98628 14.3903 8.49984C14.1886 8.84874 13.6997 9.57792 12.8694 10.2836L13.5872 11.0088C14.821 9.93074 15.3642 8.80562 15.4069 8.71153L15.5 8.49984L15.403 8.28814C15.3215 8.11173 13.3505 3.98366 7.99612 3.98366ZM4.39938 5.84972C3.86006 6.59458 3.52638 7.508 3.52638 8.49984C3.52638 9.50343 3.86394 10.4208 4.4149 11.1696C2.76203 10.3071 1.90067 9.01339 1.60967 8.49984C1.89679 8.00196 2.76203 6.7161 4.39938 5.84972ZM5.69917 5.88108L7.10372 7.30023C6.74289 7.57857 6.50621 8.0098 6.50621 8.49984C6.50621 9.33094 7.17744 10.0052 7.99612 10.0052C8.485 10.0052 8.9118 9.76609 9.18339 9.4015L10.5918 10.8246C9.95551 11.5498 9.03207 12.0124 7.99612 12.0124C6.07941 12.0124 4.51966 10.4365 4.51966 8.49984C4.51966 7.45704 4.9775 6.52401 5.69917 5.88108Z" fill="#797979"/>
</svg>
