<svg width="12" height="14" viewBox="0 0 12 14" fill="none" xmlns="http://www.w3.org/2000/svg">
<path d="M1.5 0C0.675781 0 0 0.675781 0 1.5V10.5C0 11.3242 0.675781 12 1.5 12H2V12.5C2 13.3242 2.67578 14 3.5 14H10.5C11.3242 14 12 13.3242 12 12.5V3.5C12 2.67578 11.3242 2 10.5 2H10V1.5C10 0.675781 9.32422 0 8.5 0H1.5ZM1.5 1H8.5C8.78125 1 9 1.21875 9 1.5V10.5C9 10.7812 8.78125 11 8.5 11H1.5C1.21875 11 1 10.7812 1 10.5V1.5C1 1.21875 1.21875 1 1.5 1ZM10 3H10.5C10.7812 3 11 3.21875 11 3.5V12.5C11 12.7812 10.7812 13 10.5 13H3.5C3.21875 13 3 12.7812 3 12.5V12H8.5C9.32422 12 10 11.3242 10 10.5V3ZM4.46484 4L5.82031 5.35938L4.27344 6.69531L3.51953 5.9375L2.04297 7.25L2.70703 8L3.48047 7.3125L4.22656 8.05469L6.53125 6.06641L8 7.53516V4H4.46484Z" fill="white"/>
</svg>
