<svg width="16" height="16" viewBox="0 0 16 16" fill="none" xmlns="http://www.w3.org/2000/svg">
<rect y="2" width="3.55556" height="11.5556" fill="#3A63CC"/>
<path fill-rule="evenodd" clip-rule="evenodd" d="M9.778 3.33333C9.778 2.88889 8.44466 2 6.66688 2C4.88911 2 4.35927 2.52984 3.55577 3.33333V5.98281C3.5557 5.98853 3.55566 5.99426 3.55566 6V13.5556L3.55577 13.5556V5.98281C3.56498 5.25435 4.15836 4.66667 4.889 4.66667C5.62538 4.66667 6.22233 5.26362 6.22233 6V13.5556L9.778 13.5556V3.33333Z" fill="#E56872"/>
<path fill-rule="evenodd" clip-rule="evenodd" d="M16.0001 4.22222C16.0001 3.77778 14.6668 2 12.889 2C11.1112 2 10.5814 2.52984 9.77789 3.33333V5.98784C9.77785 5.99189 9.77783 5.99594 9.77783 6V13.5556L9.77789 13.5556V5.98784C9.78441 5.25706 10.3788 4.66667 11.1112 4.66667C11.8475 4.66667 12.4445 5.26362 12.4445 6V13.5556L16.0001 13.5556V4.22222Z" fill="#F8A218"/>
</svg>
