<svg width="16" height="16" viewBox="0 0 16 16" fill="none" xmlns="http://www.w3.org/2000/svg">
<path d="M1 6H2V10H1V6Z" fill="white"/>
<path d="M15 13.9414L3 9.98828V6.01562L15 1.92578V13.9414ZM4 9.26172L14 12.5586V3.32422L4 6.73438V9.26172Z" fill="white"/>
<path d="M6.44536 13.0078C6.21098 13.0078 5.96879 12.9727 5.73442 12.9023C4.44536 12.5117 3.71489 11.1445 4.10551 9.85547L5.06254 10.1445C4.83207 10.9063 5.26176 11.7148 6.02348 11.9453C6.7852 12.1719 7.59379 11.7422 7.82426 10.9805L8.78129 11.2734C8.59379 11.8984 8.17192 12.4102 7.5977 12.7188C7.23832 12.9102 6.84379 13.0078 6.44536 13.0078Z" fill="white"/>
</svg>
