<svg width="120" height="120" viewBox="0 0 120 120" fill="none" xmlns="http://www.w3.org/2000/svg">
<path d="M41.1583 80.1597C40.762 80.1597 40.3657 80.0071 40.0622 79.7051C39.4584 79.0978 39.4584 78.1107 40.0622 77.5035L48.6855 68.8309C49.2893 68.2237 50.2708 68.2237 50.8746 68.8309C51.4784 69.4381 51.4784 70.4253 50.8746 71.0325L42.2513 79.7051C41.951 80.0071 41.5546 80.1597 41.1583 80.1597Z" fill="#B3B3B8"/>
<path d="M4.40358 115.977L3.99796 115.569C0.722035 112.274 0.722035 106.881 3.99796 103.586L29.0411 78.3997C32.317 75.1051 37.6799 75.1051 40.9558 78.3997L41.3614 78.8076C44.6373 82.1023 44.6373 87.4957 41.3614 90.7904L16.3183 115.977C13.0423 119.271 7.6795 119.271 4.40358 115.977Z" fill="#F8F8FE"/>
<path d="M10.3603 119.999C7.69128 119.999 5.18636 118.962 3.30998 117.072L2.90745 116.664C1.03108 114.78 0 112.257 0 109.573C0 106.889 1.03107 104.37 2.91055 102.482L27.9506 77.2962C31.8396 73.385 38.1654 73.385 42.0544 77.2962L42.4569 77.701C44.3364 79.5881 45.3675 82.1105 45.3675 84.7948C45.3675 87.4822 44.3364 90.0014 42.4569 91.8885L17.4138 117.075C15.5374 118.962 13.0325 119.999 10.3603 119.999ZM5.50219 114.873C8.18671 117.567 12.5463 117.57 15.2278 114.873L40.2709 89.6869C42.9523 86.9902 42.9523 82.6025 40.2709 79.9058L39.8684 79.5009C37.187 76.8042 32.8242 76.8011 30.1397 79.5009L5.09966 104.687C2.41823 107.384 2.41823 111.772 5.09966 114.468L5.50219 114.873Z" fill="#B3B3B8"/>
<path d="M40.2366 79.4928C37.3787 76.6186 32.8859 76.4286 30.2571 79.0724L29.7803 79.552L30.8206 80.5983L40.1778 90.0089L40.6546 89.5293C43.2834 86.8855 43.0976 82.3671 40.2366 79.4928Z" fill="#F8F8FE"/>
<path d="M40.2026 92.4311C39.9054 92.4311 39.6081 92.3159 39.3821 92.0885L28.2941 80.9372C27.8421 80.4826 27.8421 79.7414 28.2941 79.2868C28.7462 78.8321 29.4831 78.8321 29.9352 79.2868L41.0231 90.4381C41.4752 90.8928 41.4752 91.6339 41.0231 92.0885C40.7971 92.319 40.4999 92.4311 40.2026 92.4311Z" fill="#B3B3B8"/>
<path opacity="0.74" d="M98.4412 65.0471C110.348 53.0723 110.348 33.6572 98.4412 21.6824C86.5344 9.70754 67.2297 9.70754 55.3229 21.6824C43.4161 33.6572 43.4161 53.0723 55.3229 65.0471C67.2297 77.0219 86.5344 77.022 98.4412 65.0471Z" fill="#FFE8ED"/>
<path d="M103.987 15.4208C89.0191 0.367562 64.7501 0.367562 49.7824 15.4208C34.8147 30.4739 34.8147 54.8817 49.7824 69.9349C64.7501 84.9881 89.0191 84.9881 103.987 69.9349C118.954 54.8817 118.954 30.4739 103.987 15.4208ZM98.4444 64.3576C86.539 76.3311 67.2333 76.3311 55.3279 64.3576C43.4225 52.3842 43.4225 32.9683 55.3279 20.9949C67.2333 9.02144 86.539 9.02144 98.4444 20.9949C110.35 32.9714 110.35 52.3842 98.4444 64.3576Z" fill="#F8F8FE"/>
<path d="M76.8843 82.7609C66.6726 82.7609 56.4609 78.8528 48.6891 71.0335C41.1558 63.4602 37.0098 53.3863 37.0098 42.6772C37.0098 31.9681 41.1589 21.8942 48.6891 14.3209C64.2358 -1.31464 89.5329 -1.31464 105.083 14.3209C120.629 29.9564 120.629 55.398 105.083 71.0366C97.3109 78.8528 87.0961 82.7609 76.8843 82.7609ZM76.8843 5.70437C67.4653 5.70437 58.0463 9.31041 50.8782 16.5194C43.9301 23.5072 40.1061 32.7964 40.1061 42.6741C40.1061 52.5518 43.9332 61.844 50.8782 68.8288C65.2143 83.2467 88.5513 83.2498 102.894 68.8288C117.233 54.4077 117.233 30.9404 102.894 16.5163C95.7224 9.31041 86.3034 5.70437 76.8843 5.70437ZM76.8843 74.8824C68.6791 74.8824 60.4769 71.7404 54.2316 65.4594C41.741 52.8974 41.741 32.4569 54.2316 19.895C66.7222 7.33301 87.0465 7.32989 99.5371 19.895C112.028 32.4569 112.028 52.9005 99.5371 65.4594C93.2918 71.7404 85.0896 74.8824 76.8843 74.8824ZM76.8843 13.5828C69.4717 13.5828 62.0622 16.4197 56.4207 22.0935C45.1376 33.4441 45.1376 51.9072 56.4207 63.2547C67.7068 74.6053 86.065 74.6021 97.348 63.2547C108.631 51.9072 108.631 33.441 97.348 22.0935C91.7065 16.4228 84.2939 13.5828 76.8843 13.5828Z" fill="#B3B3B8"/>
<path d="M8.44085 118.601C8.27675 118.601 8.12503 118.495 8.07239 118.33L3.80564 105.002C3.74061 104.8 3.85208 104.578 4.05644 104.513C4.2577 104.451 4.47755 104.56 4.54257 104.765L8.80931 118.093C8.87434 118.296 8.76288 118.517 8.55852 118.582C8.51827 118.595 8.4811 118.601 8.44085 118.601Z" fill="#B3B3B8"/>
<path d="M11.1365 117.673C10.9693 117.673 10.8145 117.564 10.7649 117.396L5.93157 101.066C5.86964 100.86 5.9873 100.642 6.19166 100.583C6.40221 100.521 6.61275 100.642 6.67158 100.845L11.505 117.175C11.5669 117.38 11.4492 117.598 11.2449 117.657C11.2108 117.67 11.1737 117.673 11.1365 117.673Z" fill="#B3B3B8"/>
<path d="M12.769 111.941C12.6018 111.941 12.447 111.832 12.3974 111.664L8.35051 97.9967C8.28858 97.7912 8.40624 97.5732 8.6106 97.514C8.81806 97.4455 9.0317 97.5701 9.09053 97.7756L13.1374 111.443C13.1994 111.649 13.0817 111.867 12.8773 111.926C12.8433 111.935 12.8061 111.941 12.769 111.941Z" fill="#B3B3B8"/>
<path d="M14.4156 105.943C14.2484 105.943 14.0936 105.834 14.044 105.666L11.1923 96.0315C11.1304 95.826 11.248 95.608 11.4524 95.5488C11.6537 95.4866 11.8735 95.6049 11.9323 95.8104L14.7841 105.445C14.846 105.651 14.7283 105.869 14.524 105.928C14.4899 105.94 14.4527 105.943 14.4156 105.943Z" fill="#B3B3B8"/>
<path d="M66.587 54.6735C66.1907 54.6735 65.7944 54.5209 65.4909 54.2189C64.8871 53.6116 64.8871 52.6245 65.4909 52.0172L86.7545 31.2562C87.3583 30.649 88.3398 30.649 88.9436 31.2562C89.5474 31.8634 89.5474 32.8506 88.9436 33.4578L67.68 54.2189C67.3797 54.5209 66.9834 54.6735 66.587 54.6735Z" fill="#B3B3B8"/>
<path d="M87.8475 54.6735C88.2439 54.6735 88.6402 54.5209 88.9436 54.2189C89.5474 53.6116 89.5474 52.6245 88.9436 52.0172L67.68 31.2562C67.0762 30.649 66.0947 30.649 65.4909 31.2562C64.8871 31.8634 64.8871 32.8506 65.4909 33.4578L86.7545 54.2189C87.0549 54.5209 87.4512 54.6735 87.8475 54.6735Z" fill="#B3B3B8"/>
</svg>
