<svg width="16" height="16" viewBox="0 0 16 16" fill="none" xmlns="http://www.w3.org/2000/svg">
<path d="M2.5 2C1.67578 2 1 2.67578 1 3.5V12.5C1 13.3242 1.67578 14 2.5 14H13.5C14.3242 14 15 13.3242 15 12.5V5.5C15 4.67578 14.3242 4 13.5 4H6.79688L6.14453 2.78906C5.88281 2.30078 5.375 2 4.82422 2H2.5ZM2.5 3H4.82422C5.00781 3 5.17578 3.10156 5.26562 3.26172L6.20312 5H13.5C13.7812 5 14 5.21875 14 5.5V7H5.21875C4.57812 7 4 7.41406 3.79688 8.02344L2.17969 12.8789C2.07031 12.7891 2 12.6562 2 12.5V3.5C2 3.21875 2.21875 3 2.5 3ZM5.21875 8H14V12.5C14 12.7812 13.7812 13 13.5 13H3.19531L4.74609 8.34375C4.81641 8.13672 5.00391 8 5.21875 8Z" fill="#3A63CC"/>
</svg>
