<svg width="14" height="13" viewBox="0 0 14 13" fill="none" xmlns="http://www.w3.org/2000/svg">
<path d="M5.5 0C4.67578 0 4 0.675781 4 1.5V2H1.5C0.675781 2 0 2.67578 0 3.5V11.5C0 12.3242 0.675781 13 1.5 13H12.5C13.3242 13 14 12.3242 14 11.5V3.5C14 2.67578 13.3242 2 12.5 2H10V1.5C10 0.675781 9.32422 0 8.5 0H5.5ZM5.5 1H8.5C8.78125 1 9 1.21875 9 1.5V2H5V1.5C5 1.21875 5.21875 1 5.5 1ZM1.5 3H12.5C12.7812 3 13 3.21875 13 3.5V7H11V6H9V7H5V6H3V7H1V3.5C1 3.21875 1.21875 3 1.5 3ZM1 8H13V11.5C13 11.7812 12.7812 12 12.5 12H1.5C1.21875 12 1 11.7812 1 11.5V8Z" fill="white"/>
</svg>
