<svg width="16" height="16" viewBox="0 0 16 16" fill="none" xmlns="http://www.w3.org/2000/svg">
<path d="M9.48419 2.00006C9.35271 2.00213 9.22731 2.05581 9.13507 2.14952C9.04282 2.24323 8.99111 2.36946 8.99112 2.50095V4.29713L7.281 6.00721H4.48299C4.38394 6.00725 4.28713 6.03665 4.20479 6.0917C4.12244 6.14674 4.05827 6.22496 4.02036 6.31646C3.98246 6.40797 3.97254 6.50866 3.99184 6.60581C4.01115 6.70295 4.05882 6.7922 4.12884 6.86226L6.2792 9.01258L2 13.2917L2.70831 14L6.98751 9.72088L9.13787 11.8712C9.20793 11.9412 9.29717 11.9889 9.39432 12.0082C9.49147 12.0275 9.59216 12.0176 9.68367 11.9797C9.77518 11.9418 9.8534 11.8776 9.90844 11.7953C9.96349 11.7129 9.99288 11.6161 9.99292 11.5171V8.83648L11.7128 7.009H13.4992C13.5983 7.00896 13.6951 6.97956 13.7774 6.92452C13.8598 6.86948 13.924 6.79126 13.9619 6.69975C13.9998 6.60824 14.0097 6.50756 13.9904 6.41041C13.9711 6.31326 13.9234 6.22402 13.8534 6.15396L9.84617 2.14681C9.79874 2.09935 9.74226 2.06191 9.68008 2.0367C9.61789 2.01149 9.55128 1.99903 9.48419 2.00006ZM9.99292 3.71014L12.29 6.00721H11.4956C11.4274 6.00744 11.3599 6.02162 11.2973 6.04887C11.2347 6.07613 11.1784 6.11588 11.1317 6.1657L9.12808 8.2945C9.04055 8.38707 8.99157 8.50951 8.99112 8.63691V10.3079L5.6922 7.009H7.48841C7.62125 7.00898 7.74864 6.95619 7.84256 6.86226L9.84617 4.85868C9.94011 4.76476 9.9929 4.63737 9.99292 4.50453V3.71014Z" fill="#797979"/>
</svg>
