<svg width="16" height="16" viewBox="0 0 16 16" fill="none" xmlns="http://www.w3.org/2000/svg">
<path d="M6.01343 1.50977C8.4939 1.50977 10.5134 3.5293 10.5134 6.00977C10.5134 7.06836 10.1306 8.0332 9.51343 8.80273L14.49 13.7793L13.7869 14.4902L8.8064 9.50977C8.03687 10.127 7.07202 10.5098 6.01343 10.5098C3.53296 10.5098 1.51343 8.49023 1.51343 6.00977C1.51343 3.5293 3.53296 1.50977 6.01343 1.50977ZM6.01343 2.50977C4.07593 2.50977 2.51343 4.07227 2.51343 6.00977C2.51343 7.94727 4.07593 9.50977 6.01343 9.50977C7.95093 9.50977 9.51343 7.94727 9.51343 6.00977C9.51343 4.07227 7.95093 2.50977 6.01343 2.50977Z" fill="#797979"/>
</svg>
