<svg width="13" height="13" viewBox="0 0 13 13" fill="none" xmlns="http://www.w3.org/2000/svg">
<path d="M6.5 0C2.91797 0 0 2.91797 0 6.5C0 10.082 2.91797 13 6.5 13C10.082 13 13 10.082 13 6.5C13 2.91797 10.082 0 6.5 0ZM6.5 1C9.54297 1 12 3.45703 12 6.5C12 9.54297 9.54297 12 6.5 12C3.45703 12 1 9.54297 1 6.5C1 3.45703 3.45703 1 6.5 1ZM6.48828 3C5.64844 3 4.98828 3.72266 4.98828 4.56641V5H4.5C4.22266 5 4 5.22266 4 5.5V8.5C4 8.77734 4.22266 9 4.5 9H8.5C8.77734 9 9 8.77734 9 8.5V5.5C9 5.22266 8.77734 5 8.5 5H7.98828V4.56641C7.98828 3.72266 7.32812 3 6.48828 3ZM6.48828 4C6.74609 4 6.98828 4.23438 6.98828 4.56641V5H5.98828V4.56641C5.98828 4.23438 6.23047 4 6.48828 4ZM5 6H8V8H5V6Z" fill="white"/>
</svg>
