<svg width="16" height="16" viewBox="0 0 16 16" fill="none" xmlns="http://www.w3.org/2000/svg">
<path d="M10.5 1C9.85156 1 9.30078 1.42188 9.09375 2H2V3H9.09375C9.30078 3.57812 9.85156 4 10.5 4C11.1484 4 11.6992 3.57812 11.9062 3H14V2H11.9062C11.6992 1.42188 11.1484 1 10.5 1ZM10.5 2C10.7812 2 11 2.21875 11 2.5C11 2.78125 10.7812 3 10.5 3C10.2188 3 10 2.78125 10 2.5C10 2.21875 10.2188 2 10.5 2ZM5.5 6C4.85156 6 4.30078 6.42188 4.09375 7H2V8H4.09375C4.30078 8.57812 4.85156 9 5.5 9C6.14844 9 6.69922 8.57812 6.90625 8H14V7H6.90625C6.69922 6.42188 6.14844 6 5.5 6ZM5.5 7C5.78125 7 6 7.21875 6 7.5C6 7.78125 5.78125 8 5.5 8C5.21875 8 5 7.78125 5 7.5C5 7.21875 5.21875 7 5.5 7ZM10.5 11C9.85156 11 9.30078 11.4219 9.09375 12H2V13H9.09375C9.30078 13.5781 9.85156 14 10.5 14C11.1484 14 11.6992 13.5781 11.9062 13H14V12H11.9062C11.6992 11.4219 11.1484 11 10.5 11ZM10.5 12C10.7812 12 11 12.2188 11 12.5C11 12.7812 10.7812 13 10.5 13C10.2188 13 10 12.7812 10 12.5C10 12.2188 10.2188 12 10.5 12Z" fill="#3A63CC"/>
</svg>
